<svg xmlns="http://www.w3.org/2000/svg" width="53.979" height="53.981" viewBox="0 0 53.979 53.981"><defs><style>.a{fill:#f0f0f0;stroke:#58595b;stroke-miterlimit:10;stroke-width:2px;}</style></defs><g transform="translate(1 1)"><path class="a" d="M439.571,320.5c0,6.789-6.571,16.044-6.571,16.044s-6.571-9.255-6.571-16.044,2.672-9.946,6.3-9.946S439.571,313.715,439.571,320.5Z" transform="translate(-407.01 -310.556)"/><path class="a" d="M445.4,332.359c-6.789,0-16.044-6.571-16.044-6.571s9.255-6.569,16.044-6.569,9.946,2.673,9.946,6.3S452.19,332.359,445.4,332.359Z" transform="translate(-403.369 -299.798)"/><path class="a" d="M426.428,338.194c0-6.789,6.571-16.046,6.571-16.046s6.571,9.257,6.571,16.046-2.675,9.946-6.3,9.946S426.428,344.981,426.428,338.194Z" transform="translate(-407.01 -296.158)"/><path class="a" d="M427.71,319.218c6.789,0,16.046,6.569,16.046,6.569s-9.257,6.571-16.046,6.571-9.943-2.672-9.943-6.3S420.924,319.218,427.71,319.218Z" transform="translate(-417.767 -299.798)"/></g></svg>