<svg xmlns="http://www.w3.org/2000/svg" width="45.788" height="56.199" viewBox="0 0 45.788 56.199"><defs><style>.a{fill:none;}.a,.b{stroke:#58595b;stroke-miterlimit:10;stroke-width:2px;}.b{fill:#f0f0f0;}</style></defs><g transform="translate(1 1)"><path class="a" d="M205.819,441.352v32.655h8.913V428.633H170.944v45.375h8.649V442" transform="translate(-170.944 -425.599)"/><ellipse class="b" cx="8.61" cy="3.429" rx="8.61" ry="3.429" transform="translate(13.284)"/><path class="a" d="M172.241,449.214v5.578h37.972v-6.024" transform="translate(-169.333 -400.592)"/><path class="b" d="M195.737,432.4a5.978,5.978,0,0,0-5.069,2.8,5.982,5.982,0,0,0-11.044,3.155,6.262,6.262,0,0,0,1.007,3.314c1.256,2.022,9.365,10.555,9.719,10.919a.44.44,0,0,0,.623.011l.011-.011c.345-.363,8.455-8.9,9.719-10.919a6.243,6.243,0,0,0,1.007-3.314A5.973,5.973,0,0,0,195.737,432.4Z" transform="translate(-160.163 -420.922)"/></g></svg>