<svg xmlns="http://www.w3.org/2000/svg" width="49.931" height="49.931" viewBox="0 0 49.931 49.931"><defs><style>.a{fill:none;stroke:#58595b;stroke-miterlimit:10;stroke-width:2px;}</style></defs><g transform="translate(1 1)"><circle class="a" cx="13.997" cy="13.997" r="13.997" transform="translate(9.968 9.968)"/><line class="a" y1="6.226" transform="translate(23.966 6.079)"/><line class="a" y1="6.226" transform="translate(23.966 35.626)"/><line class="a" x1="6.226" transform="translate(6.079 23.966)"/><line class="a" x1="6.226" transform="translate(35.626 23.966)"/><line class="a" x1="4.403" y1="4.403" transform="translate(11.318 11.318)"/><line class="a" x1="4.403" y1="4.403" transform="translate(32.211 32.211)"/><line class="a" x1="4.403" y2="4.403" transform="translate(11.318 32.211)"/><line class="a" x1="4.403" y2="4.403" transform="translate(32.211 11.318)"/><line class="a" x1="1.748" y1="3.878" transform="translate(19.475 12.541)"/><line class="a" y1="2.485" x2="1.092" transform="translate(26.411 14.48)"/><line class="a" y1="1.42" x2="2.403" transform="translate(30.617 19.204)"/><line class="a" x2="2.676" y2="1.584" transform="translate(30.453 26.741)"/><line class="a" x2="0.382" y2="2.949" transform="translate(26.957 30.018)"/><line class="a" x1="1.365" y2="2.731" transform="translate(19.639 30.018)"/><line class="a" x1="3.826" y2="0.928" transform="translate(13.519 26.031)"/><line class="a" x1="2.896" y1="0.928" transform="translate(15.432 19.587)"/><line class="a" x1="2.534" y2="0.382" transform="translate(19.857 22.536)"/><line class="a" x1="0.558" y1="1.857" transform="translate(23.407 18.877)"/><line class="a" y1="1.065" x2="2.622" transform="translate(25.483 21.662)"/><line class="a" x2="0.164" y2="2.867" transform="translate(24.773 24.666)"/><line class="a" y1="2.864" x2="1.426" transform="translate(29.84 8.394)"/><line class="a" y1="0.482" x2="1.905" transform="translate(36.834 17.967)"/><line class="a" x2="2.05" y2="1.091" transform="translate(36.968 29.155)"/><line class="a" x2="0.925" y2="2.685" transform="translate(29.627 36.77)"/><line class="a" x1="1.436" y2="2.524" transform="translate(16.88 36.775)"/><line class="a" x1="3.463" y2="1.668" transform="translate(7.54 29.255)"/><line class="a" x1="2.728" y1="1.178" transform="translate(8.477 17.031)"/><line class="a" x1="1.232" y1="3.382" transform="translate(17.598 7.249)"/><circle class="a" cx="23.966" cy="23.966" r="23.966"/><line class="a" y1="33.845" x2="33.845" transform="translate(7.019 7.067)"/></g></svg>