<svg xmlns="http://www.w3.org/2000/svg" width="40.016" height="37.098" viewBox="0 0 40.016 37.098"><defs><style>.a{fill:#f0f0f0;stroke:#58595b;stroke-miterlimit:10;stroke-width:2px;}</style></defs><path class="a" d="M310.925,513.894a10.3,10.3,0,0,0-8.728,4.82,10.295,10.295,0,0,0-19.008,5.428,10.76,10.76,0,0,0,1.733,5.7c2.159,3.482,16.118,18.172,16.728,18.8a.763.763,0,0,0,1.074.02l.02-.02c.594-.626,14.553-15.313,16.726-18.8a10.743,10.743,0,0,0,1.735-5.7A10.281,10.281,0,0,0,310.925,513.894Z" transform="translate(-282.189 -512.879)"/></svg>